<?xml version="1.0" standalone="no"?>
<!DOCTYPE svg PUBLIC "-//W3C//DTD SVG 1.1//EN" "http://www.w3.org/Graphics/SVG/1.1/DTD/svg11.dtd">
<!--Generator: Xara Designer (www.xara.com), SVG filter version: 6.7.0.0-->
<svg fill="none" fill-rule="evenodd" stroke="black" stroke-width="0.501" stroke-linejoin="bevel" stroke-miterlimit="10" font-family="Times New Roman" font-size="16" style="font-variant-ligatures:none" xmlns:xlink="http://www.w3.org/1999/xlink" xmlns="http://www.w3.org/2000/svg" version="1.1" overflow="visible" width="1016.62pt" height="1211.63pt" viewBox="0 -1211.63 1016.62 1211.63">
 <defs>
	</defs>
 <g id="Layer 1" transform="scale(1 -1)">
  <text xml:space="preserve" transform="matrix(-0.999664 0 0 0.999619 320.942 158.771)" kerning="auto" stroke="#ffffff" stroke-width="0.75" font-size="10" font-family="Open Sans" stroke-linecap="round" fill="#ff0000" stroke-linejoin="round"><tspan x="0" y="0">(85, 170, 255, 340, 510)</tspan></text>
  <rect x="-31.636" y="-31.708" width="63.273" height="63.416" transform="translate(414.546 350.717) rotate(-90)" stroke="#ffffff" stroke-width="0.75" stroke-linecap="round" stroke-linejoin="miter" fill="#666666"/>
  <rect x="-63.458" y="-63.603" width="126.917" height="127.207" transform="translate(319.048 318.893) rotate(-90)" stroke="#ffffff" stroke-width="0.75" stroke-linecap="round" stroke-linejoin="miter" fill="#666666"/>
  <rect x="-31.636" y="-31.708" width="63.273" height="63.416" transform="translate(414.546 287.071) rotate(-90)" stroke="#ffffff" stroke-width="0.75" stroke-linecap="round" stroke-linejoin="miter" fill="#666666"/>
  <rect x="-31.635" y="-31.677" width="63.271" height="63.355" transform="translate(414.485 223.39) rotate(90)" stroke="#ffffff" stroke-width="0.75" stroke-linecap="round" stroke-linejoin="miter" fill="#666666"/>
  <rect x="-31.635" y="-31.677" width="63.271" height="63.355" transform="translate(287.277 223.39) rotate(90)" stroke="#ffffff" stroke-width="0.75" stroke-linecap="round" stroke-linejoin="miter" fill="#666666"/>
  <rect x="-31.635" y="-31.677" width="63.271" height="63.355" transform="translate(350.881 223.396) rotate(90)" stroke="#ffffff" stroke-width="0.75" stroke-linecap="round" stroke-linejoin="miter" fill="#666666"/>
  <rect x="-31.652" y="-31.687" width="63.304" height="63.375" transform="translate(159.719 96.189) rotate(-90)" stroke="#ffffff" stroke-width="0.75" stroke-linecap="round" stroke-linejoin="miter" fill="#666666"/>
  <rect x="-31.652" y="-31.686" width="63.304" height="63.373" transform="translate(223.373 96.189) rotate(-90)" stroke="#ffffff" stroke-width="0.75" stroke-linecap="round" stroke-linejoin="miter" fill="#666666"/>
  <rect x="-95.282" y="-95.405" width="190.565" height="190.811" transform="translate(920.646 223.355) rotate(-90)" stroke="#ffffff" stroke-width="0.75" stroke-linecap="round" stroke-linejoin="miter" fill="#666666"/>
  <rect x="-31.637" y="-31.677" width="63.274" height="63.355" transform="translate(984.248 350.716) rotate(-90)" stroke="#ffffff" stroke-width="0.75" stroke-linecap="round" stroke-linejoin="miter" fill="#666666"/>
  <rect x="-31.637" y="-31.676" width="63.274" height="63.353" transform="translate(857.043 350.717) rotate(-90)" stroke="#ffffff" stroke-width="0.75" stroke-linecap="round" stroke-linejoin="miter" fill="#666666"/>
  <rect x="-31.637" y="-31.676" width="63.274" height="63.353" transform="translate(920.647 350.716) rotate(-90)" stroke="#ffffff" stroke-width="0.75" stroke-linecap="round" stroke-linejoin="miter" fill="#666666"/>
  <rect x="-31.677" y="-31.637" width="63.355" height="63.274" transform="translate(984.248 96.191) rotate(180)" stroke="#ffffff" stroke-width="0.75" stroke-linecap="round" stroke-linejoin="miter" fill="#666666"/>
  <rect x="-31.636" y="-31.708" width="63.273" height="63.417" transform="translate(222.939 350.717) rotate(-90)" stroke="#ffffff" stroke-width="0.75" stroke-linecap="round" stroke-linejoin="miter" fill="#666666"/>
  <rect x="-63.458" y="-63.603" width="126.917" height="127.207" transform="translate(126.69 318.893) rotate(-90)" stroke="#ffffff" stroke-width="0.75" stroke-linecap="round" stroke-linejoin="miter" fill="#666666"/>
  <rect x="-31.636" y="-31.708" width="63.273" height="63.417" transform="translate(222.939 287.142) rotate(-90)" stroke="#ffffff" stroke-width="0.75" stroke-linecap="round" stroke-linejoin="miter" fill="#666666"/>
  <rect x="-31.652" y="-31.686" width="63.304" height="63.373" transform="translate(32.061 287.119) rotate(-90)" stroke="#ffffff" stroke-width="0.75" stroke-linecap="round" stroke-linejoin="miter" fill="#666666"/>
  <rect x="-31.652" y="-31.686" width="63.304" height="63.373" transform="translate(32.061 350.702) rotate(-90)" stroke="#ffffff" stroke-width="0.75" stroke-linecap="round" stroke-linejoin="miter" fill="#666666"/>
  <rect x="-31.636" y="-31.708" width="63.273" height="63.417" transform="translate(95.956 223.283) rotate(-90)" stroke="#ffffff" stroke-width="0.75" stroke-linecap="round" stroke-linejoin="miter" fill="#666666"/>
  <rect x="-63.46" y="-63.603" width="126.92" height="127.207" transform="translate(191.455 191.529) rotate(-90)" stroke="#ffffff" stroke-width="0.75" stroke-linecap="round" stroke-linejoin="miter" fill="#666666"/>
  <rect x="-31.636" y="-31.708" width="63.273" height="63.417" transform="translate(95.956 159.777) rotate(-90)" stroke="#ffffff" stroke-width="0.75" stroke-linecap="round" stroke-linejoin="miter" fill="#666666"/>
  <rect x="-31.651" y="-31.686" width="63.303" height="63.373" transform="translate(32.061 159.895) rotate(-90)" stroke="#ffffff" stroke-width="0.75" stroke-linecap="round" stroke-linejoin="miter" fill="#666666"/>
  <rect x="-31.652" y="-31.686" width="63.304" height="63.373" transform="translate(32.061 223.48) rotate(-90)" stroke="#ffffff" stroke-width="0.75" stroke-linecap="round" stroke-linejoin="miter" fill="#666666"/>
  <rect x="-95.282" y="-95.405" width="190.565" height="190.811" transform="translate(542.067 287.073) rotate(-90)" stroke="#ffffff" stroke-width="0.75" stroke-linecap="round" stroke-linejoin="miter" fill="#666666"/>
  <rect x="-31.802" y="-31.791" width="63.604" height="63.583" transform="translate(605.669 96.132) rotate(180)" stroke="#ffffff" stroke-width="0.75" stroke-linecap="round" stroke-linejoin="miter" fill="#666666"/>
  <rect x="-63.46" y="-63.54" width="126.92" height="127.081" transform="translate(510.266 127.8) rotate(-90)" stroke="#ffffff" stroke-width="0.75" stroke-linecap="round" stroke-linejoin="miter" fill="#666666"/>
  <rect x="-31.677" y="-31.637" width="63.355" height="63.274" transform="translate(605.669 159.91) rotate(180)" stroke="#ffffff" stroke-width="0.75" stroke-linecap="round" stroke-linejoin="miter" fill="#666666"/>
  <rect x="-32.79" y="-31.791" width="65.581" height="63.583" transform="translate(795.306 350.561) rotate(180)" stroke="#ffffff" stroke-width="0.75" stroke-linecap="round" stroke-linejoin="miter" fill="#666666"/>
  <rect x="-63.46" y="-62.302" width="126.92" height="124.604" transform="translate(700.146 318.894) rotate(90)" stroke="#ffffff" stroke-width="0.75" stroke-linecap="round" stroke-linejoin="miter" fill="#666666"/>
  <rect x="-32.662" y="-31.637" width="65.325" height="63.274" transform="translate(795.306 286.663) rotate(180)" stroke="#ffffff" stroke-width="0.75" stroke-linecap="round" stroke-linejoin="miter" fill="#666666"/>
  <rect x="-63.542" y="-63.457" width="127.084" height="126.915" transform="translate(701.511 127.896) rotate(180)" stroke="#ffffff" stroke-width="0.75" stroke-linecap="round" stroke-linejoin="miter" fill="#666666"/>
  <rect x="-31.636" y="-31.677" width="63.273" height="63.355" transform="translate(796.607 222.984) rotate(-90)" stroke="#ffffff" stroke-width="0.75" stroke-linecap="round" stroke-linejoin="miter" fill="#666666"/>
  <rect x="-31.636" y="-31.677" width="63.273" height="63.355" transform="translate(669.4 222.984) rotate(-90)" stroke="#ffffff" stroke-width="0.75" stroke-linecap="round" stroke-linejoin="miter" fill="#666666"/>
  <rect x="-31.636" y="-31.677" width="63.273" height="63.355" transform="translate(733.004 222.978) rotate(-90)" stroke="#ffffff" stroke-width="0.75" stroke-linecap="round" stroke-linejoin="miter" fill="#666666"/>
  <rect x="-31.652" y="-31.589" width="63.304" height="63.178" transform="translate(796.697 95.611) rotate(-90)" stroke="#ffffff" stroke-width="0.75" stroke-linecap="round" stroke-linejoin="miter" fill="#666666"/>
  <rect x="-31.652" y="-31.589" width="63.304" height="63.178" transform="translate(796.517 159.316) rotate(-90)" stroke="#ffffff" stroke-width="0.75" stroke-linecap="round" stroke-linejoin="miter" fill="#666666"/>
  <rect x="-95.281" y="-95.406" width="190.563" height="190.812" transform="translate(350.88 95.658) rotate(90)" stroke="#ffffff" stroke-width="0.75" stroke-linecap="round" stroke-linejoin="miter" fill="#666666"/>
  <rect x="-63.459" y="-63.559" width="126.918" height="127.119" transform="translate(63.935 63.835) rotate(-90)" stroke="#ffffff" stroke-width="0.75" stroke-linecap="round" stroke-linejoin="miter" fill="#666666"/>
  <rect x="-31.637" y="-31.687" width="63.274" height="63.375" transform="translate(159.719 32.012) rotate(-90)" stroke="#ffffff" stroke-width="0.75" stroke-linecap="round" stroke-linejoin="miter" fill="#666666"/>
  <rect x="-31.652" y="-31.686" width="63.304" height="63.373" transform="translate(223.373 32.027) rotate(-90)" stroke="#ffffff" stroke-width="0.75" stroke-linecap="round" stroke-linejoin="miter" fill="#666666"/>
  <rect x="-31.802" y="-31.792" width="63.604" height="63.584" transform="translate(984.248 32.169) rotate(180)" stroke="#ffffff" stroke-width="0.75" stroke-linecap="round" stroke-linejoin="miter" fill="#666666"/>
  <rect x="-63.458" y="-63.541" width="126.917" height="127.082" transform="translate(888.845 63.834) rotate(-90)" stroke="#ffffff" stroke-width="0.75" stroke-linecap="round" stroke-linejoin="miter" fill="#666666"/>
  <rect x="-31.637" y="-31.677" width="63.274" height="63.355" transform="translate(605.669 32.014) rotate(90)" stroke="#ffffff" stroke-width="0.75" stroke-linecap="round" stroke-linejoin="miter" fill="#666666"/>
  <rect x="-31.637" y="-31.676" width="63.274" height="63.353" transform="translate(478.464 32.013) rotate(90)" stroke="#ffffff" stroke-width="0.75" stroke-linecap="round" stroke-linejoin="miter" fill="#666666"/>
  <rect x="-31.637" y="-31.676" width="63.274" height="63.353" transform="translate(542.068 32.014) rotate(90)" stroke="#ffffff" stroke-width="0.75" stroke-linecap="round" stroke-linejoin="miter" fill="#666666"/>
  <rect x="-31.761" y="-31.833" width="63.522" height="63.666" transform="translate(669.681 32.138) rotate(90)" stroke="#ffffff" stroke-width="0.75" stroke-linecap="round" stroke-linejoin="miter" fill="#666666"/>
  <rect x="-31.636" y="-31.678" width="63.273" height="63.356" transform="translate(733.346 32.013) rotate(90)" stroke="#ffffff" stroke-width="0.75" stroke-linecap="round" stroke-linejoin="miter" fill="#666666"/>
  <rect x="765.087" y="0.375" width="59.551" height="63.304" stroke="#ffffff" stroke-width="0.75" stroke-linecap="round" stroke-linejoin="miter" fill="#666666"/>
  <rect x="-31.769" y="-31.811" width="63.539" height="63.622" transform="translate(602.259 414.625) rotate(90)" stroke="#ffffff" stroke-width="0.75" stroke-linejoin="miter" stroke-linecap="round" fill="#666666"/>
  <rect x="-63.539" y="-63.621" width="127.078" height="127.243" transform="translate(697.692 446.395) rotate(90)" stroke="#ffffff" stroke-width="0.75" stroke-linejoin="miter" stroke-linecap="round" fill="#666666"/>
  <rect x="-95.402" y="-95.433" width="190.804" height="190.867" transform="translate(665.882 605.552) rotate(90)" stroke="#ffffff" stroke-width="0.75" stroke-linejoin="miter" stroke-linecap="round" fill="#666666"/>
  <rect x="-31.768" y="-31.811" width="63.537" height="63.622" transform="translate(602.259 478.164) rotate(90)" stroke="#ffffff" stroke-width="0.75" stroke-linejoin="miter" stroke-linecap="round" fill="#666666"/>
  <rect x="-31.673" y="-31.811" width="63.346" height="63.622" transform="translate(602.259 732.876) rotate(90)" stroke="#ffffff" stroke-width="0.75" stroke-linejoin="miter" stroke-linecap="round" fill="#666666"/>
  <rect x="-63.539" y="-63.559" width="127.079" height="127.118" transform="translate(825.263 701.046) rotate(90)" stroke="#ffffff" stroke-width="0.75" stroke-linejoin="miter" stroke-linecap="round" fill="#666666"/>
  <rect x="-31.673" y="-31.811" width="63.346" height="63.622" transform="translate(729.503 732.876) rotate(90)" stroke="#ffffff" stroke-width="0.75" stroke-linejoin="miter" stroke-linecap="round" fill="#666666"/>
  <rect x="-31.673" y="-31.812" width="63.346" height="63.624" transform="translate(665.881 732.882) rotate(90)" stroke="#ffffff" stroke-width="0.75" stroke-linejoin="miter" stroke-linecap="round" fill="#666666"/>
  <rect x="-31.676" y="-31.686" width="63.352" height="63.373" transform="translate(920.742 732.876) rotate(90)" stroke="#ffffff" stroke-width="0.75" stroke-linejoin="miter" stroke-linecap="round" fill="#666666"/>
  <rect x="-31.691" y="-31.686" width="63.382" height="63.373" transform="translate(984.395 732.878) rotate(90)" stroke="#ffffff" stroke-width="0.75" stroke-linejoin="miter" stroke-linecap="round" fill="#666666"/>
  <rect x="-31.692" y="-31.686" width="63.385" height="63.373" transform="translate(920.742 669.213) rotate(90)" stroke="#ffffff" stroke-width="0.75" stroke-linejoin="miter" stroke-linecap="round" fill="#666666"/>
  <rect x="-31.692" y="-31.686" width="63.385" height="63.373" transform="translate(984.395 669.213) rotate(90)" stroke="#ffffff" stroke-width="0.75" stroke-linejoin="miter" stroke-linecap="round" fill="#666666"/>
  <rect x="-95.494" y="-95.433" width="190.989" height="190.867" transform="translate(95.811 541.89) rotate(90)" stroke="#ffffff" stroke-width="0.75" stroke-linejoin="miter" stroke-linecap="round" fill="#666666"/>
  <rect x="-31.831" y="-31.811" width="63.663" height="63.622" transform="translate(32.187 414.563) rotate(90)" stroke="#ffffff" stroke-width="0.75" stroke-linejoin="miter" stroke-linecap="round" fill="#666666"/>
  <rect x="-31.831" y="-31.811" width="63.663" height="63.622" transform="translate(159.738 414.563) rotate(90)" stroke="#ffffff" stroke-width="0.75" stroke-linejoin="miter" stroke-linecap="round" fill="#666666"/>
  <rect x="-31.831" y="-31.811" width="63.663" height="63.622" transform="translate(96.115 414.563) rotate(90)" stroke="#ffffff" stroke-width="0.75" stroke-linejoin="miter" stroke-linecap="round" fill="#666666"/>
  <rect x="-31.811" y="-31.831" width="63.622" height="63.663" transform="translate(32.187 732.875)" stroke="#ffffff" stroke-width="0.75" stroke-linejoin="miter" stroke-linecap="round" fill="#666666"/>
  <rect x="-63.662" y="-63.622" width="127.325" height="127.245" transform="translate(127.927 701.046) rotate(90)" stroke="#ffffff" stroke-width="0.75" stroke-linejoin="miter" stroke-linecap="round" fill="#666666"/>
  <rect x="-31.811" y="-31.831" width="63.622" height="63.663" transform="translate(32.187 669.211)" stroke="#ffffff" stroke-width="0.75" stroke-linejoin="miter" stroke-linecap="round" fill="#666666"/>
  <rect x="-127.263" y="-127.27" width="254.527" height="254.54" transform="translate(888.973 510.241) rotate(-90)" stroke="#ffffff" stroke-width="0.75" stroke-linejoin="miter" stroke-linecap="round" fill="#666666"/>
  <rect x="-63.459" y="-63.603" width="126.918" height="127.207" transform="translate(697.458 1147.63) rotate(-90)" stroke="#ffffff" stroke-width="0.75" stroke-linejoin="miter" stroke-linecap="round" fill="#666666"/>
  <rect x="-95.281" y="-95.406" width="190.563" height="190.812" transform="translate(665.283 860.37) rotate(90)" stroke="#ffffff" stroke-width="0.75" stroke-linejoin="miter" stroke-linecap="round" fill="#666666"/>
  <rect x="-63.459" y="-63.559" width="126.918" height="127.119" transform="translate(952.034 828.547) rotate(-90)" stroke="#ffffff" stroke-width="0.75" stroke-linejoin="miter" stroke-linecap="round" fill="#666666"/>
  <rect x="-31.636" y="-31.677" width="63.273" height="63.355" transform="translate(729.229 1052.3) rotate(90)" stroke="#ffffff" stroke-width="0.75" stroke-linejoin="miter" stroke-linecap="round" fill="#666666"/>
  <rect x="-31.636" y="-31.677" width="63.273" height="63.355" transform="translate(665.625 1052.3) rotate(90)" stroke="#ffffff" stroke-width="0.75" stroke-linejoin="miter" stroke-linecap="round" fill="#666666"/>
  <rect x="-31.637" y="-31.687" width="63.274" height="63.375" transform="translate(856.787 861.323) rotate(-90)" stroke="#ffffff" stroke-width="0.75" stroke-linejoin="miter" stroke-linecap="round" fill="#666666"/>
  <rect x="-31.652" y="-31.686" width="63.304" height="63.373" transform="translate(793.133 861.338) rotate(-90)" stroke="#ffffff" stroke-width="0.75" stroke-linejoin="miter" stroke-linecap="round" fill="#666666"/>
  <rect x="-31.652" y="-31.687" width="63.304" height="63.375" transform="translate(856.787 924.922) rotate(-90)" stroke="#ffffff" stroke-width="0.75" stroke-linejoin="miter" stroke-linecap="round" fill="#666666"/>
  <rect x="-31.652" y="-31.686" width="63.304" height="63.373" transform="translate(793.133 924.922) rotate(-90)" stroke="#ffffff" stroke-width="0.75" stroke-linejoin="miter" stroke-linecap="round" fill="#666666"/>
  <rect x="-31.802" y="-31.792" width="63.604" height="63.584" transform="translate(32.178 861.341)" stroke="#ffffff" stroke-width="0.75" stroke-linejoin="miter" stroke-linecap="round" fill="#666666"/>
  <rect x="-63.537" y="-63.54" width="127.074" height="127.081" transform="translate(128.141 828.624) rotate(-90)" stroke="#ffffff" stroke-width="0.75" stroke-linejoin="miter" stroke-linecap="round" fill="#666666"/>
  <rect x="-31.636" y="-31.708" width="63.273" height="63.417" transform="translate(792.817 1179.45) rotate(-90)" stroke="#ffffff" stroke-width="0.75" stroke-linejoin="miter" stroke-linecap="round" fill="#666666"/>
  <rect x="-63.459" y="-63.603" width="126.918" height="127.207" transform="translate(888.316 1147.63) rotate(-90)" stroke="#ffffff" stroke-width="0.75" stroke-linejoin="miter" stroke-linecap="round" fill="#666666"/>
  <rect x="-31.636" y="-31.708" width="63.273" height="63.417" transform="translate(792.817 1115.87) rotate(-90)" stroke="#ffffff" stroke-width="0.75" stroke-linejoin="miter" stroke-linecap="round" fill="#666666"/>
  <rect x="-31.652" y="-31.686" width="63.304" height="63.373" transform="translate(984.263 1115.85) rotate(-90)" stroke="#ffffff" stroke-width="0.75" stroke-linejoin="miter" stroke-linecap="round" fill="#666666"/>
  <rect x="-31.652" y="-31.686" width="63.304" height="63.373" transform="translate(984.263 1179.43) rotate(-90)" stroke="#ffffff" stroke-width="0.75" stroke-linejoin="miter" stroke-linecap="round" fill="#666666"/>
  <rect x="-31.636" y="-31.708" width="63.273" height="63.417" transform="translate(920.55 1052.3) rotate(-90)" stroke="#ffffff" stroke-width="0.75" stroke-linejoin="miter" stroke-linecap="round" fill="#666666"/>
  <rect x="-31.652" y="-31.686" width="63.304" height="63.373" transform="translate(984.32 1052.28) rotate(-90)" stroke="#ffffff" stroke-width="0.75" stroke-linejoin="miter" stroke-linecap="round" fill="#666666"/>
  <rect x="-31.674" y="-31.709" width="63.349" height="63.418" transform="translate(410.805 796.763) rotate(90)" stroke="#ffffff" stroke-width="0.75" stroke-linejoin="miter" stroke-linecap="round" fill="#666666"/>
  <rect x="-31.637" y="-31.676" width="63.274" height="63.353" transform="translate(538.042 796.725) rotate(90)" stroke="#ffffff" stroke-width="0.75" stroke-linejoin="miter" stroke-linecap="round" fill="#666666"/>
  <rect x="-31.674" y="-31.708" width="63.349" height="63.416" transform="translate(474.47 796.763) rotate(90)" stroke="#ffffff" stroke-width="0.75" stroke-linejoin="miter" stroke-linecap="round" fill="#666666"/>
  <rect x="-63.46" y="-62.302" width="126.92" height="124.604" transform="translate(316.36 1147.63) rotate(90)" stroke="#ffffff" stroke-width="0.75" stroke-linejoin="miter" stroke-linecap="round" fill="#666666"/>
  <rect x="-63.542" y="-63.457" width="127.084" height="126.915" transform="translate(314.995 828.545)" stroke="#ffffff" stroke-width="0.75" stroke-linejoin="miter" stroke-linecap="round" fill="#666666"/>
  <rect x="-31.636" y="-31.677" width="63.273" height="63.355" transform="translate(347.106 1052.3) rotate(-90)" stroke="#ffffff" stroke-width="0.75" stroke-linejoin="miter" stroke-linecap="round" fill="#666666"/>
  <rect x="-31.636" y="-31.677" width="63.273" height="63.355" transform="translate(283.502 1052.3) rotate(-90)" stroke="#ffffff" stroke-width="0.75" stroke-linejoin="miter" stroke-linecap="round" fill="#666666"/>
  <rect x="-31.637" y="-31.677" width="63.274" height="63.355" transform="translate(32.054 796.725) rotate(-90)" stroke="#ffffff" stroke-width="0.75" stroke-linejoin="miter" stroke-linecap="round" fill="#666666"/>
  <rect x="-31.674" y="-31.709" width="63.349" height="63.418" transform="translate(920.186 924.946) rotate(90)" stroke="#ffffff" stroke-width="0.75" stroke-linejoin="miter" stroke-linecap="round" fill="#666666"/>
  <rect x="-31.674" y="-31.708" width="63.349" height="63.416" transform="translate(983.851 924.946) rotate(90)" stroke="#ffffff" stroke-width="0.75" stroke-linejoin="miter" stroke-linecap="round" fill="#666666"/>
  <rect x="-31.674" y="-31.709" width="63.349" height="63.418" transform="translate(792.727 796.763) rotate(90)" stroke="#ffffff" stroke-width="0.75" stroke-linejoin="miter" stroke-linecap="round" fill="#666666"/>
  <rect x="-31.674" y="-31.708" width="63.349" height="63.416" transform="translate(856.393 796.763) rotate(90)" stroke="#ffffff" stroke-width="0.75" stroke-linejoin="miter" stroke-linecap="round" fill="#666666"/>
  <rect x="-31.597" y="-31.51" width="63.195" height="63.021" transform="translate(410.246 861.557)" stroke="#ffffff" stroke-width="0.75" stroke-linejoin="miter" stroke-linecap="round" fill="#666666"/>
  <rect x="-31.548" y="-31.629" width="63.097" height="63.259" transform="translate(474.325 861.596) rotate(90)" stroke="#ffffff" stroke-width="0.75" stroke-linejoin="miter" stroke-linecap="round" fill="#666666"/>
  <rect x="-31.548" y="-31.628" width="63.097" height="63.256" transform="translate(537.831 861.596) rotate(90)" stroke="#ffffff" stroke-width="0.75" stroke-linejoin="miter" stroke-linecap="round" fill="#666666"/>
  <rect x="-31.636" y="-31.708" width="63.273" height="63.416" transform="translate(601.992 1179.45) rotate(-90)" stroke="#ffffff" stroke-width="0.75" stroke-linejoin="miter" stroke-linecap="round" fill="#666666"/>
  <rect x="-31.636" y="-31.708" width="63.273" height="63.416" transform="translate(601.992 1115.8) rotate(-90)" stroke="#ffffff" stroke-width="0.75" stroke-linejoin="miter" stroke-linecap="round" fill="#666666"/>
  <rect x="-31.636" y="-31.676" width="63.273" height="63.353" transform="translate(602.022 1052.3) rotate(90)" stroke="#ffffff" stroke-width="0.75" stroke-linejoin="miter" stroke-linecap="round" fill="#666666"/>
  <rect x="-31.676" y="-31.674" width="63.353" height="63.349" transform="translate(32.053 924.051)" stroke="#ffffff" stroke-width="0.75" stroke-linejoin="miter" stroke-linecap="round" fill="#666666"/>
  <rect x="-31.802" y="-31.791" width="63.604" height="63.583" transform="translate(410.837 924.168)" stroke="#ffffff" stroke-width="0.75" stroke-linejoin="miter" stroke-linecap="round" fill="#666666"/>
  <rect x="-31.761" y="-31.833" width="63.522" height="63.666" transform="translate(346.825 924.137) rotate(-90)" stroke="#ffffff" stroke-width="0.75" stroke-linejoin="miter" stroke-linecap="round" fill="#666666"/>
  <rect x="-31.636" y="-31.678" width="63.273" height="63.356" transform="translate(283.16 924.012) rotate(-90)" stroke="#ffffff" stroke-width="0.75" stroke-linejoin="miter" stroke-linecap="round" fill="#666666"/>
  <rect x="-31.637" y="-31.676" width="63.274" height="63.353" transform="translate(538.2 924.013) rotate(90)" stroke="#ffffff" stroke-width="0.75" stroke-linejoin="miter" stroke-linecap="round" fill="#666666"/>
  <rect x="-31.637" y="-31.676" width="63.274" height="63.353" transform="translate(474.387 924.014) rotate(90)" stroke="#ffffff" stroke-width="0.75" stroke-linejoin="miter" stroke-linecap="round" fill="#666666"/>
  <rect x="-31.674" y="-31.676" width="63.349" height="63.353" transform="translate(96.498 924.051) rotate(90)" stroke="#ffffff" stroke-width="0.75" stroke-linejoin="miter" stroke-linecap="round" fill="#666666"/>
  <rect x="-31.674" y="-31.677" width="63.349" height="63.355" transform="translate(160.004 924.051) rotate(90)" stroke="#ffffff" stroke-width="0.75" stroke-linejoin="miter" stroke-linecap="round" fill="#666666"/>
  <rect x="-31.637" y="-31.677" width="63.274" height="63.355" transform="translate(32.054 1179.14) rotate(-90)" stroke="#ffffff" stroke-width="0.75" stroke-linejoin="miter" stroke-linecap="round" fill="#666666"/>
  <rect x="-31.637" y="-31.676" width="63.274" height="63.353" transform="translate(160.006 1179.14) rotate(-90)" stroke="#ffffff" stroke-width="0.75" stroke-linejoin="miter" stroke-linecap="round" fill="#666666"/>
  <rect x="-31.637" y="-31.676" width="63.274" height="63.352" transform="translate(95.86 1179.14) rotate(-90)" stroke="#ffffff" stroke-width="0.75" stroke-linejoin="miter" stroke-linecap="round" fill="#666666"/>
  <rect x="-31.636" y="-31.708" width="63.273" height="63.417" transform="translate(410.356 1179.62) rotate(-90)" stroke="#ffffff" stroke-width="0.75" stroke-linejoin="miter" stroke-linecap="round" fill="#666666"/>
  <rect x="-63.459" y="-63.603" width="126.918" height="127.207" transform="translate(505.855 1147.79) rotate(-90)" stroke="#ffffff" stroke-width="0.75" stroke-linejoin="miter" stroke-linecap="round" fill="#666666"/>
  <rect x="-31.636" y="-31.708" width="63.273" height="63.417" transform="translate(410.356 1115.97) rotate(-90)" stroke="#ffffff" stroke-width="0.75" stroke-linejoin="miter" stroke-linecap="round" fill="#666666"/>
  <rect x="-31.636" y="-31.677" width="63.273" height="63.355" transform="translate(410.418 1052.3) rotate(90)" stroke="#ffffff" stroke-width="0.75" stroke-linejoin="miter" stroke-linecap="round" fill="#666666"/>
  <rect x="-31.636" y="-31.677" width="63.273" height="63.355" transform="translate(537.625 1052.3) rotate(90)" stroke="#ffffff" stroke-width="0.75" stroke-linejoin="miter" stroke-linecap="round" fill="#666666"/>
  <rect x="-31.636" y="-31.676" width="63.273" height="63.353" transform="translate(474.022 1052.3) rotate(90)" stroke="#ffffff" stroke-width="0.75" stroke-linejoin="miter" stroke-linecap="round" fill="#666666"/>
  <rect x="-95.402" y="-95.404" width="190.804" height="190.809" transform="translate(95.782 1051.37) rotate(-90)" stroke="#ffffff" stroke-width="0.75" stroke-linejoin="miter" stroke-linecap="round" fill="#666666"/>
  <rect x="-63.459" y="-63.603" width="126.918" height="127.207" transform="translate(825.051 1019.42) rotate(-90)" stroke="#ffffff" stroke-width="0.75" stroke-linejoin="miter" stroke-linecap="round" fill="#666666"/>
  <rect x="-31.637" y="-31.708" width="63.274" height="63.417" transform="translate(920.55 987.6) rotate(-90)" stroke="#ffffff" stroke-width="0.75" stroke-linejoin="miter" stroke-linecap="round" fill="#666666"/>
  <rect x="-31.652" y="-31.686" width="63.304" height="63.373" transform="translate(984.32 987.614) rotate(-90)" stroke="#ffffff" stroke-width="0.75" stroke-linejoin="miter" stroke-linecap="round" fill="#666666"/>
  <rect x="-31.677" y="-31.636" width="63.355" height="63.273" transform="translate(410.837 987.602)" stroke="#ffffff" stroke-width="0.75" stroke-linejoin="miter" stroke-linecap="round" fill="#666666"/>
  <rect x="-31.638" y="-31.687" width="63.276" height="63.375" transform="translate(538.03 987.6) rotate(-90)" stroke="#ffffff" stroke-width="0.75" stroke-linejoin="miter" stroke-linecap="round" fill="#666666"/>
  <rect x="-31.652" y="-31.686" width="63.304" height="63.373" transform="translate(474.376 987.614) rotate(-90)" stroke="#ffffff" stroke-width="0.75" stroke-linejoin="miter" stroke-linecap="round" fill="#666666"/>
  <rect x="-31.674" y="-31.709" width="63.349" height="63.418" transform="translate(283.163 987.638) rotate(90)" stroke="#ffffff" stroke-width="0.75" stroke-linejoin="miter" stroke-linecap="round" fill="#666666"/>
  <rect x="-31.674" y="-31.708" width="63.349" height="63.416" transform="translate(346.828 987.638) rotate(90)" stroke="#ffffff" stroke-width="0.75" stroke-linejoin="miter" stroke-linecap="round" fill="#666666"/>
  <rect x="-31.548" y="-31.629" width="63.096" height="63.259" transform="translate(665.51 987.514) rotate(90)" stroke="#ffffff" stroke-width="0.75" stroke-linejoin="miter" stroke-linecap="round" fill="#666666"/>
  <rect x="-31.548" y="-31.628" width="63.096" height="63.256" transform="translate(729.016 987.514) rotate(90)" stroke="#ffffff" stroke-width="0.75" stroke-linejoin="miter" stroke-linecap="round" fill="#666666"/>
  <rect x="-31.597" y="-31.51" width="63.194" height="63.02" transform="translate(602.103 987.475)" stroke="#ffffff" stroke-width="0.75" stroke-linejoin="miter" stroke-linecap="round" fill="#666666"/>
  <rect x="-32.661" y="-31.637" width="65.323" height="63.274" transform="translate(220.85 1115.39)" stroke="#ffffff" stroke-width="0.75" stroke-linejoin="miter" stroke-linecap="round" fill="#666666"/>
  <rect x="-31.636" y="-31.677" width="63.273" height="63.355" transform="translate(219.865 1052.3) rotate(-90)" stroke="#ffffff" stroke-width="0.75" stroke-linejoin="miter" stroke-linecap="round" fill="#666666"/>
  <rect x="-31.675" y="-31.677" width="63.351" height="63.355" transform="translate(219.864 861.516) rotate(-90)" stroke="#ffffff" stroke-width="0.75" stroke-linejoin="miter" stroke-linecap="round" fill="#666666"/>
  <rect x="-31.674" y="-31.677" width="63.349" height="63.355" transform="translate(219.865 796.762) rotate(-90)" stroke="#ffffff" stroke-width="0.75" stroke-linejoin="miter" stroke-linecap="round" fill="#666666"/>
  <rect x="-31.652" y="-31.589" width="63.304" height="63.178" transform="translate(219.775 924.027) rotate(-90)" stroke="#ffffff" stroke-width="0.75" stroke-linejoin="miter" stroke-linecap="round" fill="#666666"/>
  <rect x="-32.79" y="-31.791" width="65.581" height="63.583" transform="translate(220.977 1179.29)" stroke="#ffffff" stroke-width="0.75" stroke-linejoin="miter" stroke-linecap="round" fill="#666666"/>
  <rect x="-31.652" y="-31.589" width="63.304" height="63.178" transform="translate(219.775 987.614) rotate(-90)" stroke="#ffffff" stroke-width="0.75" stroke-linejoin="miter" stroke-linecap="round" fill="#666666"/>
  <rect x="317.747" y="511.41" width="251.969" height="253.299" fill="#666666" stroke-linejoin="miter" stroke-linecap="round" stroke="#ffffff" stroke-width="0.75"/>
  <rect x="-31.239" y="-31.265" width="62.479" height="62.53" transform="translate(475.094 415.197) rotate(90)" fill="#666666" stroke-linejoin="miter" stroke-linecap="round" stroke="#ffffff" stroke-width="0.75"/>
  <rect x="506.602" y="383.958" width="62.123" height="62.479" fill="#666666" stroke-linejoin="miter" stroke-linecap="round" stroke="#ffffff" stroke-width="0.75"/>
  <rect x="-31.155" y="-31.078" width="62.311" height="62.157" transform="translate(474.542 479.102)" fill="#666666" stroke-linejoin="miter" stroke-linecap="round" stroke="#ffffff" stroke-width="0.75"/>
  <rect x="506.542" y="448.025" width="63.172" height="62.232" fill="#666666" stroke-linejoin="miter" stroke-linecap="round" stroke="#ffffff" stroke-width="0.75"/>
  <rect x="191.502" y="638.233" width="63.423" height="62.479" fill="#666666" stroke-linejoin="miter" stroke-linecap="round" stroke="#ffffff" stroke-width="0.75"/>
  <rect x="-31.239" y="-31.058" width="62.479" height="62.117" transform="translate(286.232 669.472) rotate(90)" fill="#666666" stroke-linejoin="miter" stroke-linecap="round" stroke="#ffffff" stroke-width="0.75"/>
  <rect x="191.053" y="702.299" width="63.201" height="62.157" fill="#666666" stroke-linejoin="miter" stroke-linecap="round" stroke="#ffffff" stroke-width="0.75"/>
  <rect x="-31.116" y="-30.981" width="62.232" height="61.963" transform="translate(286.09 733.416) rotate(90)" fill="#666666" stroke-linejoin="miter" stroke-linecap="round" stroke="#ffffff" stroke-width="0.75"/>
  <rect x="318.042" y="383.106" width="125.345" height="127.074" fill="#666666" stroke-linejoin="miter" stroke-linecap="round" stroke="#ffffff" stroke-width="0.75"/>
  <rect x="-63.537" y="-62.651" width="127.074" height="125.302" transform="translate(254.64 574.695) rotate(-90)" fill="#666666" stroke-linejoin="miter" stroke-linecap="round" stroke="#ffffff" stroke-width="0.75"/>
  <rect x="192.53" y="382.741" width="62.117" height="64.215" fill="#666666" stroke-linejoin="miter" stroke-linecap="round" stroke="#ffffff" stroke-width="0.75"/>
  <rect x="254.89" y="382.741" width="62.116" height="64.215" fill="#666666" stroke-linejoin="miter" stroke-linecap="round" stroke="#ffffff" stroke-width="0.75"/>
  <rect x="191.997" y="447.153" width="61.993" height="63.549" fill="#666666" stroke-linejoin="miter" stroke-linecap="round" stroke="#ffffff" stroke-width="0.75"/>
  <rect x="254.825" y="446.409" width="61.962" height="64.365" fill="#666666" stroke-linejoin="miter" stroke-linecap="round" stroke="#ffffff" stroke-width="0.75"/>
 </g>
</svg>
