<?xml version="1.0" standalone="no"?>
<!DOCTYPE svg PUBLIC "-//W3C//DTD SVG 1.1//EN" "http://www.w3.org/Graphics/SVG/1.1/DTD/svg11.dtd">
<!--Generator: Xara Designer (www.xara.com), SVG filter version: 6.7.0.0-->
<svg fill="none" fill-rule="evenodd" stroke="black" stroke-width="0.501" stroke-linejoin="bevel" stroke-miterlimit="10" font-family="Times New Roman" font-size="16" style="font-variant-ligatures:none" xmlns:xlink="http://www.w3.org/1999/xlink" xmlns="http://www.w3.org/2000/svg" version="1.1" overflow="visible" width="1017.98pt" height="1594.36pt" viewBox="0 -1594.36 1017.98 1594.36">
 <defs>
	</defs>
 <g id="Layer 1" transform="scale(1 -1)">
  <text xml:space="preserve" transform="matrix(-0.999664 0 0 -0.999619 320.942 1435.59)" kerning="auto" stroke="#ffffff" stroke-width="0.75" font-size="10" font-family="Open Sans" stroke-linecap="round" fill="#ff0000" stroke-linejoin="round"><tspan x="0" y="0">(85, 170, 255, 340, 510)</tspan></text>
  <rect x="-31.636" y="-31.708" width="63.273" height="63.416" transform="translate(414.546 1243.64) rotate(90)" stroke="#ffffff" stroke-width="0.75" stroke-linecap="round" stroke-linejoin="miter" fill="#666666"/>
  <rect x="-63.458" y="-63.603" width="126.917" height="127.207" transform="translate(319.048 1275.46) rotate(90)" stroke="#ffffff" stroke-width="0.75" stroke-linecap="round" stroke-linejoin="miter" fill="#666666"/>
  <rect x="-31.636" y="-31.708" width="63.273" height="63.416" transform="translate(414.546 1307.29) rotate(90)" stroke="#ffffff" stroke-width="0.75" stroke-linecap="round" stroke-linejoin="miter" fill="#666666"/>
  <rect x="-31.635" y="-31.677" width="63.271" height="63.355" transform="translate(414.485 1370.97) rotate(-90)" stroke="#ffffff" stroke-width="0.75" stroke-linecap="round" stroke-linejoin="miter" fill="#666666"/>
  <rect x="-31.635" y="-31.677" width="63.271" height="63.355" transform="translate(287.277 1370.97) rotate(-90)" stroke="#ffffff" stroke-width="0.75" stroke-linecap="round" stroke-linejoin="miter" fill="#666666"/>
  <rect x="-31.635" y="-31.677" width="63.271" height="63.355" transform="translate(350.881 1370.96) rotate(-90)" stroke="#ffffff" stroke-width="0.75" stroke-linecap="round" stroke-linejoin="miter" fill="#666666"/>
  <rect x="-31.652" y="-31.687" width="63.304" height="63.375" transform="translate(159.719 1498.17) rotate(90)" stroke="#ffffff" stroke-width="0.75" stroke-linecap="round" stroke-linejoin="miter" fill="#666666"/>
  <rect x="-31.652" y="-31.686" width="63.304" height="63.373" transform="translate(223.373 1498.17) rotate(90)" stroke="#ffffff" stroke-width="0.75" stroke-linecap="round" stroke-linejoin="miter" fill="#666666"/>
  <rect x="-95.282" y="-95.405" width="190.565" height="190.811" transform="translate(920.646 1371) rotate(90)" stroke="#ffffff" stroke-width="0.75" stroke-linecap="round" stroke-linejoin="miter" fill="#666666"/>
  <rect x="-31.637" y="-31.677" width="63.274" height="63.355" transform="translate(984.248 1243.64) rotate(90)" stroke="#ffffff" stroke-width="0.75" stroke-linecap="round" stroke-linejoin="miter" fill="#666666"/>
  <rect x="-31.637" y="-31.676" width="63.274" height="63.353" transform="translate(857.043 1243.64) rotate(90)" stroke="#ffffff" stroke-width="0.75" stroke-linecap="round" stroke-linejoin="miter" fill="#666666"/>
  <rect x="-31.637" y="-31.676" width="63.274" height="63.353" transform="translate(920.647 1243.64) rotate(90)" stroke="#ffffff" stroke-width="0.75" stroke-linecap="round" stroke-linejoin="miter" fill="#666666"/>
  <rect x="-31.677" y="-31.637" width="63.355" height="63.274" transform="translate(984.248 1498.17) rotate(180)" stroke="#ffffff" stroke-width="0.75" stroke-linecap="round" stroke-linejoin="miter" fill="#666666"/>
  <rect x="-31.636" y="-31.708" width="63.273" height="63.417" transform="translate(222.939 1243.64) rotate(90)" stroke="#ffffff" stroke-width="0.75" stroke-linecap="round" stroke-linejoin="miter" fill="#666666"/>
  <rect x="-63.458" y="-63.603" width="126.917" height="127.207" transform="translate(126.69 1275.46) rotate(90)" stroke="#ffffff" stroke-width="0.75" stroke-linecap="round" stroke-linejoin="miter" fill="#666666"/>
  <rect x="-31.636" y="-31.708" width="63.273" height="63.417" transform="translate(222.939 1307.22) rotate(90)" stroke="#ffffff" stroke-width="0.75" stroke-linecap="round" stroke-linejoin="miter" fill="#666666"/>
  <rect x="-31.652" y="-31.686" width="63.304" height="63.373" transform="translate(32.061 1307.24) rotate(90)" stroke="#ffffff" stroke-width="0.75" stroke-linecap="round" stroke-linejoin="miter" fill="#666666"/>
  <rect x="-31.652" y="-31.686" width="63.304" height="63.373" transform="translate(32.061 1243.66) rotate(90)" stroke="#ffffff" stroke-width="0.75" stroke-linecap="round" stroke-linejoin="miter" fill="#666666"/>
  <rect x="-31.636" y="-31.708" width="63.273" height="63.417" transform="translate(95.956 1371.08) rotate(90)" stroke="#ffffff" stroke-width="0.75" stroke-linecap="round" stroke-linejoin="miter" fill="#666666"/>
  <rect x="-63.46" y="-63.603" width="126.92" height="127.207" transform="translate(191.455 1402.83) rotate(90)" stroke="#ffffff" stroke-width="0.75" stroke-linecap="round" stroke-linejoin="miter" fill="#666666"/>
  <rect x="-31.636" y="-31.708" width="63.273" height="63.417" transform="translate(95.956 1434.58) rotate(90)" stroke="#ffffff" stroke-width="0.75" stroke-linecap="round" stroke-linejoin="miter" fill="#666666"/>
  <rect x="-31.651" y="-31.686" width="63.303" height="63.373" transform="translate(32.061 1434.46) rotate(90)" stroke="#ffffff" stroke-width="0.75" stroke-linecap="round" stroke-linejoin="miter" fill="#666666"/>
  <rect x="-31.652" y="-31.686" width="63.304" height="63.373" transform="translate(32.061 1370.88) rotate(90)" stroke="#ffffff" stroke-width="0.75" stroke-linecap="round" stroke-linejoin="miter" fill="#666666"/>
  <rect x="-31.802" y="-31.791" width="63.604" height="63.583" transform="translate(605.669 1498.23) rotate(180)" stroke="#ffffff" stroke-width="0.75" stroke-linecap="round" stroke-linejoin="miter" fill="#666666"/>
  <rect x="-63.46" y="-63.54" width="126.92" height="127.081" transform="translate(510.266 1466.56) rotate(90)" stroke="#ffffff" stroke-width="0.75" stroke-linecap="round" stroke-linejoin="miter" fill="#666666"/>
  <rect x="-31.677" y="-31.637" width="63.355" height="63.274" transform="translate(605.669 1434.45) rotate(180)" stroke="#ffffff" stroke-width="0.75" stroke-linecap="round" stroke-linejoin="miter" fill="#666666"/>
  <rect x="-32.79" y="-31.791" width="65.581" height="63.583" transform="translate(795.306 1243.8) rotate(180)" stroke="#ffffff" stroke-width="0.75" stroke-linecap="round" stroke-linejoin="miter" fill="#666666"/>
  <rect x="-63.46" y="-62.302" width="126.92" height="124.604" transform="translate(700.146 1275.46) rotate(-90)" stroke="#ffffff" stroke-width="0.75" stroke-linecap="round" stroke-linejoin="miter" fill="#666666"/>
  <rect x="-32.662" y="-31.637" width="65.325" height="63.274" transform="translate(795.306 1307.69) rotate(180)" stroke="#ffffff" stroke-width="0.75" stroke-linecap="round" stroke-linejoin="miter" fill="#666666"/>
  <rect x="-63.542" y="-63.457" width="127.084" height="126.915" transform="translate(701.511 1466.46) rotate(180)" stroke="#ffffff" stroke-width="0.75" stroke-linecap="round" stroke-linejoin="miter" fill="#666666"/>
  <rect x="-31.636" y="-31.677" width="63.273" height="63.355" transform="translate(796.607 1371.37) rotate(90)" stroke="#ffffff" stroke-width="0.75" stroke-linecap="round" stroke-linejoin="miter" fill="#666666"/>
  <rect x="-31.636" y="-31.677" width="63.273" height="63.355" transform="translate(669.4 1371.37) rotate(90)" stroke="#ffffff" stroke-width="0.75" stroke-linecap="round" stroke-linejoin="miter" fill="#666666"/>
  <rect x="-31.636" y="-31.677" width="63.273" height="63.355" transform="translate(733.004 1371.38) rotate(90)" stroke="#ffffff" stroke-width="0.75" stroke-linecap="round" stroke-linejoin="miter" fill="#666666"/>
  <rect x="-31.652" y="-31.589" width="63.304" height="63.178" transform="translate(796.697 1498.75) rotate(90)" stroke="#ffffff" stroke-width="0.75" stroke-linecap="round" stroke-linejoin="miter" fill="#666666"/>
  <rect x="-31.652" y="-31.589" width="63.304" height="63.178" transform="translate(796.517 1435.04) rotate(90)" stroke="#ffffff" stroke-width="0.75" stroke-linecap="round" stroke-linejoin="miter" fill="#666666"/>
  <rect x="-95.281" y="-95.406" width="190.563" height="190.812" transform="translate(350.88 1498.7) rotate(-90)" stroke="#ffffff" stroke-width="0.75" stroke-linecap="round" stroke-linejoin="miter" fill="#666666"/>
  <rect x="-63.459" y="-63.559" width="126.918" height="127.119" transform="translate(63.935 1530.52) rotate(90)" stroke="#ffffff" stroke-width="0.75" stroke-linecap="round" stroke-linejoin="miter" fill="#666666"/>
  <rect x="-31.637" y="-31.687" width="63.274" height="63.375" transform="translate(159.719 1562.35) rotate(90)" stroke="#ffffff" stroke-width="0.75" stroke-linecap="round" stroke-linejoin="miter" fill="#666666"/>
  <rect x="-31.652" y="-31.686" width="63.304" height="63.373" transform="translate(223.373 1562.33) rotate(90)" stroke="#ffffff" stroke-width="0.75" stroke-linecap="round" stroke-linejoin="miter" fill="#666666"/>
  <rect x="-31.802" y="-31.792" width="63.604" height="63.584" transform="translate(984.248 1562.19) rotate(180)" stroke="#ffffff" stroke-width="0.75" stroke-linecap="round" stroke-linejoin="miter" fill="#666666"/>
  <rect x="-63.458" y="-63.541" width="126.917" height="127.082" transform="translate(888.845 1530.52) rotate(90)" stroke="#ffffff" stroke-width="0.75" stroke-linecap="round" stroke-linejoin="miter" fill="#666666"/>
  <rect x="-31.637" y="-31.677" width="63.274" height="63.355" transform="translate(605.669 1562.34) rotate(-90)" stroke="#ffffff" stroke-width="0.75" stroke-linecap="round" stroke-linejoin="miter" fill="#666666"/>
  <rect x="-31.637" y="-31.676" width="63.274" height="63.353" transform="translate(478.464 1562.35) rotate(-90)" stroke="#ffffff" stroke-width="0.75" stroke-linecap="round" stroke-linejoin="miter" fill="#666666"/>
  <rect x="-31.637" y="-31.676" width="63.274" height="63.353" transform="translate(542.068 1562.34) rotate(-90)" stroke="#ffffff" stroke-width="0.75" stroke-linecap="round" stroke-linejoin="miter" fill="#666666"/>
  <rect x="-31.761" y="-31.833" width="63.522" height="63.666" transform="translate(669.681 1562.22) rotate(-90)" stroke="#ffffff" stroke-width="0.75" stroke-linecap="round" stroke-linejoin="miter" fill="#666666"/>
  <rect x="-31.636" y="-31.678" width="63.273" height="63.356" transform="translate(733.346 1562.35) rotate(-90)" stroke="#ffffff" stroke-width="0.75" stroke-linecap="round" stroke-linejoin="miter" fill="#666666"/>
  <rect x="-31.652" y="-29.775" width="63.304" height="59.551" transform="translate(794.862 1562.33) rotate(90)" stroke="#ffffff" stroke-width="0.75" stroke-linecap="round" stroke-linejoin="miter" fill="#666666"/>
  <rect x="-31.769" y="-31.811" width="63.539" height="63.622" transform="translate(602.259 1179.73) rotate(-90)" stroke="#ffffff" stroke-width="0.75" stroke-linejoin="miter" stroke-linecap="round" fill="#666666"/>
  <rect x="-63.539" y="-63.621" width="127.078" height="127.243" transform="translate(697.692 1147.96) rotate(-90)" stroke="#ffffff" stroke-width="0.75" stroke-linejoin="miter" stroke-linecap="round" fill="#666666"/>
  <rect x="-95.402" y="-95.433" width="190.804" height="190.867" transform="translate(665.882 988.806) rotate(-90)" stroke="#ffffff" stroke-width="0.75" stroke-linejoin="miter" stroke-linecap="round" fill="#666666"/>
  <rect x="-31.768" y="-31.811" width="63.537" height="63.622" transform="translate(602.259 1116.19) rotate(-90)" stroke="#ffffff" stroke-width="0.75" stroke-linejoin="miter" stroke-linecap="round" fill="#666666"/>
  <rect x="-31.673" y="-31.811" width="63.346" height="63.622" transform="translate(602.259 861.482) rotate(-90)" stroke="#ffffff" stroke-width="0.75" stroke-linejoin="miter" stroke-linecap="round" fill="#666666"/>
  <rect x="-63.539" y="-63.559" width="127.079" height="127.118" transform="translate(825.263 893.312) rotate(-90)" stroke="#ffffff" stroke-width="0.75" stroke-linejoin="miter" stroke-linecap="round" fill="#666666"/>
  <rect x="-31.673" y="-31.811" width="63.346" height="63.622" transform="translate(729.503 861.482) rotate(-90)" stroke="#ffffff" stroke-width="0.75" stroke-linejoin="miter" stroke-linecap="round" fill="#666666"/>
  <rect x="-31.673" y="-31.812" width="63.346" height="63.624" transform="translate(665.881 861.476) rotate(-90)" stroke="#ffffff" stroke-width="0.75" stroke-linejoin="miter" stroke-linecap="round" fill="#666666"/>
  <rect x="-31.676" y="-31.686" width="63.352" height="63.373" transform="translate(920.742 861.482) rotate(-90)" stroke="#ffffff" stroke-width="0.75" stroke-linejoin="miter" stroke-linecap="round" fill="#666666"/>
  <rect x="-31.691" y="-31.686" width="63.382" height="63.373" transform="translate(984.395 861.48) rotate(-90)" stroke="#ffffff" stroke-width="0.75" stroke-linejoin="miter" stroke-linecap="round" fill="#666666"/>
  <rect x="-31.692" y="-31.686" width="63.385" height="63.373" transform="translate(920.742 925.145) rotate(-90)" stroke="#ffffff" stroke-width="0.75" stroke-linejoin="miter" stroke-linecap="round" fill="#666666"/>
  <rect x="-31.692" y="-31.686" width="63.385" height="63.373" transform="translate(984.395 925.145) rotate(-90)" stroke="#ffffff" stroke-width="0.75" stroke-linejoin="miter" stroke-linecap="round" fill="#666666"/>
  <rect x="-95.494" y="-95.433" width="190.989" height="190.867" transform="translate(95.811 1052.47) rotate(-90)" stroke="#ffffff" stroke-width="0.75" stroke-linejoin="miter" stroke-linecap="round" fill="#666666"/>
  <rect x="-31.831" y="-31.811" width="63.663" height="63.622" transform="translate(32.187 1179.8) rotate(-90)" stroke="#ffffff" stroke-width="0.75" stroke-linejoin="miter" stroke-linecap="round" fill="#666666"/>
  <rect x="-31.831" y="-31.811" width="63.663" height="63.622" transform="translate(159.738 1179.8) rotate(-90)" stroke="#ffffff" stroke-width="0.75" stroke-linejoin="miter" stroke-linecap="round" fill="#666666"/>
  <rect x="-31.831" y="-31.811" width="63.663" height="63.622" transform="translate(96.115 1179.8) rotate(-90)" stroke="#ffffff" stroke-width="0.75" stroke-linejoin="miter" stroke-linecap="round" fill="#666666"/>
  <rect x="-31.811" y="-31.831" width="63.622" height="63.663" transform="translate(32.187 861.483)" stroke="#ffffff" stroke-width="0.75" stroke-linejoin="miter" stroke-linecap="round" fill="#666666"/>
  <rect x="-63.662" y="-63.622" width="127.325" height="127.245" transform="translate(127.927 893.312) rotate(-90)" stroke="#ffffff" stroke-width="0.75" stroke-linejoin="miter" stroke-linecap="round" fill="#666666"/>
  <rect x="-31.811" y="-31.831" width="63.622" height="63.663" transform="translate(32.187 925.147)" stroke="#ffffff" stroke-width="0.75" stroke-linejoin="miter" stroke-linecap="round" fill="#666666"/>
  <rect x="-127.263" y="-127.27" width="254.527" height="254.54" transform="translate(888.973 1084.12) rotate(90)" stroke="#ffffff" stroke-width="0.75" stroke-linejoin="miter" stroke-linecap="round" fill="#666666"/>
  <rect x="-63.459" y="-63.603" width="126.918" height="127.207" transform="translate(697.458 446.732) rotate(90)" stroke="#ffffff" stroke-width="0.75" stroke-linejoin="miter" stroke-linecap="round" fill="#666666"/>
  <rect x="-95.281" y="-95.406" width="190.563" height="190.812" transform="translate(665.283 733.988) rotate(-90)" stroke="#ffffff" stroke-width="0.75" stroke-linejoin="miter" stroke-linecap="round" fill="#666666"/>
  <rect x="-63.459" y="-63.559" width="126.918" height="127.119" transform="translate(952.034 765.811) rotate(90)" stroke="#ffffff" stroke-width="0.75" stroke-linejoin="miter" stroke-linecap="round" fill="#666666"/>
  <rect x="-31.636" y="-31.677" width="63.273" height="63.355" transform="translate(729.229 542.061) rotate(-90)" stroke="#ffffff" stroke-width="0.75" stroke-linejoin="miter" stroke-linecap="round" fill="#666666"/>
  <rect x="-31.636" y="-31.677" width="63.273" height="63.355" transform="translate(665.625 542.061) rotate(-90)" stroke="#ffffff" stroke-width="0.75" stroke-linejoin="miter" stroke-linecap="round" fill="#666666"/>
  <rect x="-31.637" y="-31.687" width="63.274" height="63.375" transform="translate(856.787 733.035) rotate(90)" stroke="#ffffff" stroke-width="0.75" stroke-linejoin="miter" stroke-linecap="round" fill="#666666"/>
  <rect x="-31.652" y="-31.686" width="63.304" height="63.373" transform="translate(793.133 733.02) rotate(90)" stroke="#ffffff" stroke-width="0.75" stroke-linejoin="miter" stroke-linecap="round" fill="#666666"/>
  <rect x="-31.652" y="-31.687" width="63.304" height="63.375" transform="translate(856.787 669.436) rotate(90)" stroke="#ffffff" stroke-width="0.75" stroke-linejoin="miter" stroke-linecap="round" fill="#666666"/>
  <rect x="-31.652" y="-31.686" width="63.304" height="63.373" transform="translate(793.133 669.436) rotate(90)" stroke="#ffffff" stroke-width="0.75" stroke-linejoin="miter" stroke-linecap="round" fill="#666666"/>
  <rect x="-31.802" y="-31.792" width="63.604" height="63.584" transform="translate(32.178 733.017)" stroke="#ffffff" stroke-width="0.75" stroke-linejoin="miter" stroke-linecap="round" fill="#666666"/>
  <rect x="-63.537" y="-63.54" width="127.074" height="127.081" transform="translate(128.141 765.734) rotate(90)" stroke="#ffffff" stroke-width="0.75" stroke-linejoin="miter" stroke-linecap="round" fill="#666666"/>
  <rect x="-31.636" y="-31.708" width="63.273" height="63.417" transform="translate(792.817 414.908) rotate(90)" stroke="#ffffff" stroke-width="0.75" stroke-linejoin="miter" stroke-linecap="round" fill="#666666"/>
  <rect x="-63.459" y="-63.603" width="126.918" height="127.207" transform="translate(888.316 446.732) rotate(90)" stroke="#ffffff" stroke-width="0.75" stroke-linejoin="miter" stroke-linecap="round" fill="#666666"/>
  <rect x="-31.636" y="-31.708" width="63.273" height="63.417" transform="translate(792.817 478.484) rotate(90)" stroke="#ffffff" stroke-width="0.75" stroke-linejoin="miter" stroke-linecap="round" fill="#666666"/>
  <rect x="-31.652" y="-31.686" width="63.304" height="63.373" transform="translate(984.263 478.507) rotate(90)" stroke="#ffffff" stroke-width="0.75" stroke-linejoin="miter" stroke-linecap="round" fill="#666666"/>
  <rect x="-31.652" y="-31.686" width="63.304" height="63.373" transform="translate(984.263 414.923) rotate(90)" stroke="#ffffff" stroke-width="0.75" stroke-linejoin="miter" stroke-linecap="round" fill="#666666"/>
  <rect x="-31.636" y="-31.708" width="63.273" height="63.417" transform="translate(920.55 542.061) rotate(90)" stroke="#ffffff" stroke-width="0.75" stroke-linejoin="miter" stroke-linecap="round" fill="#666666"/>
  <rect x="-31.652" y="-31.686" width="63.304" height="63.373" transform="translate(984.32 542.077) rotate(90)" stroke="#ffffff" stroke-width="0.75" stroke-linejoin="miter" stroke-linecap="round" fill="#666666"/>
  <rect x="-31.674" y="-31.709" width="63.349" height="63.418" transform="translate(410.805 797.595) rotate(-90)" stroke="#ffffff" stroke-width="0.75" stroke-linejoin="miter" stroke-linecap="round" fill="#666666"/>
  <rect x="-31.637" y="-31.676" width="63.274" height="63.353" transform="translate(538.042 797.633) rotate(-90)" stroke="#ffffff" stroke-width="0.75" stroke-linejoin="miter" stroke-linecap="round" fill="#666666"/>
  <rect x="-31.674" y="-31.708" width="63.349" height="63.416" transform="translate(474.47 797.595) rotate(-90)" stroke="#ffffff" stroke-width="0.75" stroke-linejoin="miter" stroke-linecap="round" fill="#666666"/>
  <rect x="-63.46" y="-62.302" width="126.92" height="124.604" transform="translate(316.36 446.731) rotate(-90)" stroke="#ffffff" stroke-width="0.75" stroke-linejoin="miter" stroke-linecap="round" fill="#666666"/>
  <rect x="-63.542" y="-63.457" width="127.084" height="126.915" transform="translate(314.995 765.813)" stroke="#ffffff" stroke-width="0.75" stroke-linejoin="miter" stroke-linecap="round" fill="#666666"/>
  <rect x="-31.636" y="-31.677" width="63.273" height="63.355" transform="translate(347.106 542.062) rotate(90)" stroke="#ffffff" stroke-width="0.75" stroke-linejoin="miter" stroke-linecap="round" fill="#666666"/>
  <rect x="-31.636" y="-31.677" width="63.273" height="63.355" transform="translate(283.502 542.062) rotate(90)" stroke="#ffffff" stroke-width="0.75" stroke-linejoin="miter" stroke-linecap="round" fill="#666666"/>
  <rect x="-31.637" y="-31.677" width="63.274" height="63.355" transform="translate(32.054 797.633) rotate(90)" stroke="#ffffff" stroke-width="0.75" stroke-linejoin="miter" stroke-linecap="round" fill="#666666"/>
  <rect x="-31.674" y="-31.709" width="63.349" height="63.418" transform="translate(920.186 669.412) rotate(-90)" stroke="#ffffff" stroke-width="0.75" stroke-linejoin="miter" stroke-linecap="round" fill="#666666"/>
  <rect x="-31.674" y="-31.708" width="63.349" height="63.416" transform="translate(983.851 669.412) rotate(-90)" stroke="#ffffff" stroke-width="0.75" stroke-linejoin="miter" stroke-linecap="round" fill="#666666"/>
  <rect x="-31.674" y="-31.709" width="63.349" height="63.418" transform="translate(792.727 797.595) rotate(-90)" stroke="#ffffff" stroke-width="0.75" stroke-linejoin="miter" stroke-linecap="round" fill="#666666"/>
  <rect x="-31.674" y="-31.708" width="63.349" height="63.416" transform="translate(856.393 797.595) rotate(-90)" stroke="#ffffff" stroke-width="0.75" stroke-linejoin="miter" stroke-linecap="round" fill="#666666"/>
  <rect x="-31.597" y="-31.51" width="63.195" height="63.021" transform="translate(410.246 732.801)" stroke="#ffffff" stroke-width="0.75" stroke-linejoin="miter" stroke-linecap="round" fill="#666666"/>
  <rect x="-31.548" y="-31.629" width="63.097" height="63.259" transform="translate(474.325 732.762) rotate(-90)" stroke="#ffffff" stroke-width="0.75" stroke-linejoin="miter" stroke-linecap="round" fill="#666666"/>
  <rect x="-31.548" y="-31.628" width="63.097" height="63.256" transform="translate(537.831 732.762) rotate(-90)" stroke="#ffffff" stroke-width="0.75" stroke-linejoin="miter" stroke-linecap="round" fill="#666666"/>
  <rect x="-31.636" y="-31.708" width="63.273" height="63.416" transform="translate(601.992 414.908) rotate(90)" stroke="#ffffff" stroke-width="0.75" stroke-linejoin="miter" stroke-linecap="round" fill="#666666"/>
  <rect x="-31.636" y="-31.708" width="63.273" height="63.416" transform="translate(601.992 478.555) rotate(90)" stroke="#ffffff" stroke-width="0.75" stroke-linejoin="miter" stroke-linecap="round" fill="#666666"/>
  <rect x="-31.636" y="-31.676" width="63.273" height="63.353" transform="translate(602.022 542.061) rotate(-90)" stroke="#ffffff" stroke-width="0.75" stroke-linejoin="miter" stroke-linecap="round" fill="#666666"/>
  <rect x="-31.676" y="-31.674" width="63.353" height="63.349" transform="translate(32.053 670.307)" stroke="#ffffff" stroke-width="0.75" stroke-linejoin="miter" stroke-linecap="round" fill="#666666"/>
  <rect x="-31.802" y="-31.791" width="63.604" height="63.583" transform="translate(410.837 670.19)" stroke="#ffffff" stroke-width="0.75" stroke-linejoin="miter" stroke-linecap="round" fill="#666666"/>
  <rect x="-31.761" y="-31.833" width="63.522" height="63.666" transform="translate(346.825 670.221) rotate(90)" stroke="#ffffff" stroke-width="0.75" stroke-linejoin="miter" stroke-linecap="round" fill="#666666"/>
  <rect x="-31.636" y="-31.678" width="63.273" height="63.356" transform="translate(283.16 670.346) rotate(90)" stroke="#ffffff" stroke-width="0.75" stroke-linejoin="miter" stroke-linecap="round" fill="#666666"/>
  <rect x="-31.637" y="-31.676" width="63.274" height="63.353" transform="translate(538.2 670.345) rotate(-90)" stroke="#ffffff" stroke-width="0.75" stroke-linejoin="miter" stroke-linecap="round" fill="#666666"/>
  <rect x="-31.637" y="-31.676" width="63.274" height="63.353" transform="translate(474.387 670.344) rotate(-90)" stroke="#ffffff" stroke-width="0.75" stroke-linejoin="miter" stroke-linecap="round" fill="#666666"/>
  <rect x="-31.674" y="-31.676" width="63.349" height="63.353" transform="translate(96.498 670.307) rotate(-90)" stroke="#ffffff" stroke-width="0.75" stroke-linejoin="miter" stroke-linecap="round" fill="#666666"/>
  <rect x="-31.674" y="-31.677" width="63.349" height="63.355" transform="translate(160.004 670.307) rotate(-90)" stroke="#ffffff" stroke-width="0.75" stroke-linejoin="miter" stroke-linecap="round" fill="#666666"/>
  <rect x="-31.637" y="-31.677" width="63.274" height="63.355" transform="translate(32.054 415.218) rotate(90)" stroke="#ffffff" stroke-width="0.75" stroke-linejoin="miter" stroke-linecap="round" fill="#666666"/>
  <rect x="-31.637" y="-31.676" width="63.274" height="63.353" transform="translate(160.006 415.219) rotate(90)" stroke="#ffffff" stroke-width="0.75" stroke-linejoin="miter" stroke-linecap="round" fill="#666666"/>
  <rect x="-31.637" y="-31.676" width="63.274" height="63.352" transform="translate(95.86 415.218) rotate(90)" stroke="#ffffff" stroke-width="0.75" stroke-linejoin="miter" stroke-linecap="round" fill="#666666"/>
  <rect x="-31.636" y="-31.708" width="63.273" height="63.417" transform="translate(410.356 414.74) rotate(90)" stroke="#ffffff" stroke-width="0.75" stroke-linejoin="miter" stroke-linecap="round" fill="#666666"/>
  <rect x="-63.459" y="-63.603" width="126.918" height="127.207" transform="translate(505.855 446.564) rotate(90)" stroke="#ffffff" stroke-width="0.75" stroke-linejoin="miter" stroke-linecap="round" fill="#666666"/>
  <rect x="-31.636" y="-31.708" width="63.273" height="63.417" transform="translate(410.356 478.387) rotate(90)" stroke="#ffffff" stroke-width="0.75" stroke-linejoin="miter" stroke-linecap="round" fill="#666666"/>
  <rect x="-31.636" y="-31.677" width="63.273" height="63.355" transform="translate(410.418 542.061) rotate(-90)" stroke="#ffffff" stroke-width="0.75" stroke-linejoin="miter" stroke-linecap="round" fill="#666666"/>
  <rect x="-31.636" y="-31.677" width="63.273" height="63.355" transform="translate(537.625 542.061) rotate(-90)" stroke="#ffffff" stroke-width="0.75" stroke-linejoin="miter" stroke-linecap="round" fill="#666666"/>
  <rect x="-31.636" y="-31.676" width="63.273" height="63.353" transform="translate(474.022 542.061) rotate(-90)" stroke="#ffffff" stroke-width="0.75" stroke-linejoin="miter" stroke-linecap="round" fill="#666666"/>
  <rect x="-95.402" y="-95.404" width="190.804" height="190.809" transform="translate(95.782 542.993) rotate(90)" stroke="#ffffff" stroke-width="0.75" stroke-linejoin="miter" stroke-linecap="round" fill="#666666"/>
  <rect x="-63.459" y="-63.603" width="126.918" height="127.207" transform="translate(825.051 574.935) rotate(90)" stroke="#ffffff" stroke-width="0.75" stroke-linejoin="miter" stroke-linecap="round" fill="#666666"/>
  <rect x="-31.637" y="-31.708" width="63.274" height="63.417" transform="translate(920.55 606.758) rotate(90)" stroke="#ffffff" stroke-width="0.75" stroke-linejoin="miter" stroke-linecap="round" fill="#666666"/>
  <rect x="-31.652" y="-31.686" width="63.304" height="63.373" transform="translate(984.32 606.744) rotate(90)" stroke="#ffffff" stroke-width="0.75" stroke-linejoin="miter" stroke-linecap="round" fill="#666666"/>
  <rect x="-31.677" y="-31.636" width="63.355" height="63.273" transform="translate(410.837 606.756)" stroke="#ffffff" stroke-width="0.75" stroke-linejoin="miter" stroke-linecap="round" fill="#666666"/>
  <rect x="-31.638" y="-31.687" width="63.276" height="63.375" transform="translate(538.03 606.758) rotate(90)" stroke="#ffffff" stroke-width="0.75" stroke-linejoin="miter" stroke-linecap="round" fill="#666666"/>
  <rect x="-31.652" y="-31.686" width="63.304" height="63.373" transform="translate(474.376 606.744) rotate(90)" stroke="#ffffff" stroke-width="0.75" stroke-linejoin="miter" stroke-linecap="round" fill="#666666"/>
  <rect x="-31.674" y="-31.709" width="63.349" height="63.418" transform="translate(283.163 606.72) rotate(-90)" stroke="#ffffff" stroke-width="0.75" stroke-linejoin="miter" stroke-linecap="round" fill="#666666"/>
  <rect x="-31.674" y="-31.708" width="63.349" height="63.416" transform="translate(346.828 606.72) rotate(-90)" stroke="#ffffff" stroke-width="0.75" stroke-linejoin="miter" stroke-linecap="round" fill="#666666"/>
  <rect x="-31.548" y="-31.629" width="63.096" height="63.259" transform="translate(665.51 606.844) rotate(-90)" stroke="#ffffff" stroke-width="0.75" stroke-linejoin="miter" stroke-linecap="round" fill="#666666"/>
  <rect x="-31.548" y="-31.628" width="63.096" height="63.256" transform="translate(729.016 606.844) rotate(-90)" stroke="#ffffff" stroke-width="0.75" stroke-linejoin="miter" stroke-linecap="round" fill="#666666"/>
  <rect x="-31.597" y="-31.51" width="63.194" height="63.02" transform="translate(602.103 606.883)" stroke="#ffffff" stroke-width="0.75" stroke-linejoin="miter" stroke-linecap="round" fill="#666666"/>
  <rect x="-32.661" y="-31.637" width="65.323" height="63.274" transform="translate(220.85 478.963)" stroke="#ffffff" stroke-width="0.75" stroke-linejoin="miter" stroke-linecap="round" fill="#666666"/>
  <rect x="-31.636" y="-31.677" width="63.273" height="63.355" transform="translate(219.865 542.062) rotate(90)" stroke="#ffffff" stroke-width="0.75" stroke-linejoin="miter" stroke-linecap="round" fill="#666666"/>
  <rect x="-31.675" y="-31.677" width="63.351" height="63.355" transform="translate(219.864 732.842) rotate(90)" stroke="#ffffff" stroke-width="0.75" stroke-linejoin="miter" stroke-linecap="round" fill="#666666"/>
  <rect x="-31.674" y="-31.677" width="63.349" height="63.355" transform="translate(219.865 797.596) rotate(90)" stroke="#ffffff" stroke-width="0.75" stroke-linejoin="miter" stroke-linecap="round" fill="#666666"/>
  <rect x="-31.652" y="-31.589" width="63.304" height="63.178" transform="translate(219.775 670.331) rotate(90)" stroke="#ffffff" stroke-width="0.75" stroke-linejoin="miter" stroke-linecap="round" fill="#666666"/>
  <rect x="-32.79" y="-31.791" width="65.581" height="63.583" transform="translate(220.977 415.064)" stroke="#ffffff" stroke-width="0.75" stroke-linejoin="miter" stroke-linecap="round" fill="#666666"/>
  <rect x="-31.652" y="-31.589" width="63.304" height="63.178" transform="translate(219.775 606.744) rotate(90)" stroke="#ffffff" stroke-width="0.75" stroke-linejoin="miter" stroke-linecap="round" fill="#666666"/>
  <rect x="-126.649" y="-125.984" width="253.299" height="251.969" transform="translate(443.731 956.299) rotate(90)" fill="#666666" stroke-linejoin="miter" stroke-linecap="round" stroke="#ffffff" stroke-width="0.75"/>
  <rect x="-31.239" y="-31.265" width="62.479" height="62.53" transform="translate(475.094 1179.16) rotate(-90)" fill="#666666" stroke-linejoin="miter" stroke-linecap="round" stroke="#ffffff" stroke-width="0.75"/>
  <rect x="-31.239" y="-31.061" width="62.479" height="62.123" transform="translate(537.663 1179.16) rotate(-90)" fill="#666666" stroke-linejoin="miter" stroke-linecap="round" stroke="#ffffff" stroke-width="0.75"/>
  <rect x="-31.155" y="-31.078" width="62.311" height="62.157" transform="translate(474.542 1115.26)" fill="#666666" stroke-linejoin="miter" stroke-linecap="round" stroke="#ffffff" stroke-width="0.75"/>
  <rect x="-31.116" y="-31.586" width="62.232" height="63.172" transform="translate(538.128 1115.22) rotate(-90)" fill="#666666" stroke-linejoin="miter" stroke-linecap="round" stroke="#ffffff" stroke-width="0.75"/>
  <rect x="-31.239" y="-31.711" width="62.479" height="63.423" transform="translate(223.213 924.886) rotate(-90)" fill="#666666" stroke-linejoin="miter" stroke-linecap="round" stroke="#ffffff" stroke-width="0.75"/>
  <rect x="-31.239" y="-31.058" width="62.479" height="62.117" transform="translate(286.232 924.886) rotate(-90)" fill="#666666" stroke-linejoin="miter" stroke-linecap="round" stroke="#ffffff" stroke-width="0.75"/>
  <rect x="-31.6" y="-31.078" width="63.201" height="62.157" transform="translate(222.653 860.981)" fill="#666666" stroke-linejoin="miter" stroke-linecap="round" stroke="#ffffff" stroke-width="0.75"/>
  <rect x="-31.116" y="-30.981" width="62.232" height="61.963" transform="translate(286.09 860.942) rotate(-90)" fill="#666666" stroke-linejoin="miter" stroke-linecap="round" stroke="#ffffff" stroke-width="0.75"/>
  <rect x="-63.537" y="-62.672" width="127.074" height="125.345" transform="translate(380.714 1147.71) rotate(90)" fill="#666666" stroke-linejoin="miter" stroke-linecap="round" stroke="#ffffff" stroke-width="0.75"/>
  <rect x="-63.537" y="-62.65" width="127.074" height="125.3" transform="translate(254.64 1019.66) rotate(90)" fill="#666666" stroke-linejoin="miter" stroke-linecap="round" stroke="#ffffff" stroke-width="0.75"/>
  <rect x="-32.107" y="-31.058" width="64.215" height="62.117" transform="translate(223.588 1179.51) rotate(-90)" fill="#666666" stroke-linejoin="miter" stroke-linecap="round" stroke="#ffffff" stroke-width="0.75"/>
  <rect x="-32.107" y="-31.058" width="64.215" height="62.116" transform="translate(285.948 1179.51) rotate(-90)" fill="#666666" stroke-linejoin="miter" stroke-linecap="round" stroke="#ffffff" stroke-width="0.75"/>
  <rect x="-30.996" y="-31.774" width="61.993" height="63.549" transform="translate(222.993 1115.43)" fill="#666666" stroke-linejoin="miter" stroke-linecap="round" stroke="#ffffff" stroke-width="0.75"/>
  <rect x="-32.182" y="-30.981" width="64.365" height="61.962" transform="translate(285.806 1115.77) rotate(-90)" fill="#666666" stroke-linejoin="miter" stroke-linecap="round" stroke="#ffffff" stroke-width="0.75"/>
  <rect x="-31.802" y="-31.791" width="63.604" height="63.583" transform="translate(478.84 1306.65)" stroke-linejoin="miter" stroke-linecap="round" stroke="#ffffff" stroke-width="0.75" fill="#666666"/>
  <rect x="-31.677" y="-31.637" width="63.355" height="63.274" transform="translate(478.84 1370.42)" stroke-linejoin="miter" stroke-linecap="round" stroke="#ffffff" stroke-width="0.75" fill="#666666"/>
  <rect x="-31.637" y="-31.677" width="63.274" height="63.355" transform="translate(478.84 1242.53) rotate(90)" stroke-linejoin="miter" stroke-linecap="round" stroke="#ffffff" stroke-width="0.75" fill="#666666"/>
  <rect x="-31.637" y="-31.676" width="63.274" height="63.353" transform="translate(606.045 1242.53) rotate(90)" stroke-linejoin="miter" stroke-linecap="round" stroke="#ffffff" stroke-width="0.75" fill="#666666"/>
  <rect x="-31.637" y="-31.676" width="63.274" height="63.353" transform="translate(542.441 1242.53) rotate(90)" stroke-linejoin="miter" stroke-linecap="round" stroke="#ffffff" stroke-width="0.75" fill="#666666"/>
  <rect x="-31.652" y="-31.687" width="63.304" height="63.375" transform="translate(543.08 1306.25) rotate(90)" stroke="#ffffff" stroke-width="0.75" stroke-linecap="round" stroke-linejoin="miter" fill="#666666"/>
  <rect x="-31.652" y="-31.686" width="63.304" height="63.373" transform="translate(606.734 1306.25) rotate(90)" stroke="#ffffff" stroke-width="0.75" stroke-linecap="round" stroke-linejoin="miter" fill="#666666"/>
  <rect x="-31.637" y="-31.687" width="63.274" height="63.375" transform="translate(543.08 1370.42) rotate(90)" stroke="#ffffff" stroke-width="0.75" stroke-linecap="round" stroke-linejoin="miter" fill="#666666"/>
  <rect x="-31.652" y="-31.686" width="63.304" height="63.373" transform="translate(606.734 1370.41) rotate(90)" stroke="#ffffff" stroke-width="0.75" stroke-linecap="round" stroke-linejoin="miter" fill="#666666"/>
  <g id="Group" stroke-linejoin="miter" stroke-linecap="round" stroke="#ffffff" stroke-width="0.75" fill="#666666">
   <rect x="-95.494" y="-95.433" width="190.989" height="190.867" transform="translate(796.129 159.535) rotate(90)"/>
   <rect x="-31.831" y="-31.811" width="63.663" height="63.622" transform="translate(732.505 32.208) rotate(90)"/>
   <rect x="-31.831" y="-31.811" width="63.663" height="63.622" transform="translate(860.056 32.208) rotate(90)"/>
   <rect x="-31.831" y="-31.811" width="63.663" height="63.622" transform="translate(796.433 32.208) rotate(90)"/>
   <rect x="-31.811" y="-31.831" width="63.622" height="63.663" transform="translate(732.505 350.52)"/>
   <rect x="-63.662" y="-63.622" width="127.325" height="127.245" transform="translate(828.245 318.691) rotate(90)"/>
   <rect x="-31.811" y="-31.831" width="63.622" height="63.663" transform="translate(732.505 286.856)"/>
   <rect x="891.82" y="255.878" width="63.423" height="62.479"/>
   <rect x="-31.239" y="-31.058" width="62.479" height="62.117" transform="translate(986.55 287.117) rotate(90)"/>
   <rect x="891.371" y="319.944" width="63.201" height="62.157"/>
   <rect x="-31.116" y="-30.981" width="62.232" height="61.963" transform="translate(986.408 351.061) rotate(90)"/>
   <rect x="-63.537" y="-62.65" width="127.074" height="125.3" transform="translate(954.958 192.34) rotate(-90)"/>
   <rect x="892.848" y="0.386" width="62.117" height="64.215"/>
   <rect x="955.208" y="0.386" width="62.116" height="64.215"/>
   <rect x="892.315" y="64.798" width="61.993" height="63.549"/>
   <rect x="955.143" y="64.054" width="61.962" height="64.365"/>
  </g>
  <rect x="-31.597" y="-31.51" width="63.195" height="63.021" transform="translate(539.257 32.657)" stroke="#ffffff" stroke-width="0.75" stroke-linejoin="miter" stroke-linecap="round" fill="#666666"/>
  <rect x="-31.548" y="-31.629" width="63.097" height="63.259" transform="translate(603.336 32.696) rotate(90)" stroke="#ffffff" stroke-width="0.75" stroke-linejoin="miter" stroke-linecap="round" fill="#666666"/>
  <rect x="-31.548" y="-31.628" width="63.097" height="63.256" transform="translate(666.842 32.696) rotate(90)" stroke="#ffffff" stroke-width="0.75" stroke-linejoin="miter" stroke-linecap="round" fill="#666666"/>
  <rect x="-31.802" y="-31.791" width="63.604" height="63.583" transform="translate(539.848 95.268)" stroke="#ffffff" stroke-width="0.75" stroke-linejoin="miter" stroke-linecap="round" fill="#666666"/>
  <rect x="-31.637" y="-31.676" width="63.274" height="63.353" transform="translate(667.211 95.113) rotate(90)" stroke="#ffffff" stroke-width="0.75" stroke-linejoin="miter" stroke-linecap="round" fill="#666666"/>
  <rect x="-31.637" y="-31.676" width="63.274" height="63.353" transform="translate(603.398 95.114) rotate(90)" stroke="#ffffff" stroke-width="0.75" stroke-linejoin="miter" stroke-linecap="round" fill="#666666"/>
  <rect x="-31.636" y="-31.708" width="63.273" height="63.417" transform="translate(540.117 350.718) rotate(-90)" stroke="#ffffff" stroke-width="0.75" stroke-linejoin="miter" stroke-linecap="round" fill="#666666"/>
  <rect x="-63.459" y="-63.603" width="126.918" height="127.207" transform="translate(634.866 318.894) rotate(-90)" stroke="#ffffff" stroke-width="0.75" stroke-linejoin="miter" stroke-linecap="round" fill="#666666"/>
  <rect x="-31.636" y="-31.708" width="63.273" height="63.417" transform="translate(539.367 288.571) rotate(-90)" stroke="#ffffff" stroke-width="0.75" stroke-linejoin="miter" stroke-linecap="round" fill="#666666"/>
  <rect x="-31.636" y="-31.677" width="63.273" height="63.355" transform="translate(539.429 223.397) rotate(90)" stroke="#ffffff" stroke-width="0.75" stroke-linejoin="miter" stroke-linecap="round" fill="#666666"/>
  <rect x="-31.636" y="-31.677" width="63.273" height="63.355" transform="translate(666.636 223.397) rotate(90)" stroke="#ffffff" stroke-width="0.75" stroke-linejoin="miter" stroke-linecap="round" fill="#666666"/>
  <rect x="-31.636" y="-31.676" width="63.273" height="63.353" transform="translate(603.033 223.397) rotate(90)" stroke="#ffffff" stroke-width="0.75" stroke-linejoin="miter" stroke-linecap="round" fill="#666666"/>
  <rect x="-31.677" y="-31.636" width="63.355" height="63.273" transform="translate(539.848 158.702)" stroke="#ffffff" stroke-width="0.75" stroke-linejoin="miter" stroke-linecap="round" fill="#666666"/>
  <rect x="-31.638" y="-31.687" width="63.276" height="63.375" transform="translate(667.041 158.7) rotate(-90)" stroke="#ffffff" stroke-width="0.75" stroke-linejoin="miter" stroke-linecap="round" fill="#666666"/>
  <rect x="-31.652" y="-31.686" width="63.304" height="63.373" transform="translate(603.387 158.714) rotate(-90)" stroke="#ffffff" stroke-width="0.75" stroke-linejoin="miter" stroke-linecap="round" fill="#666666"/>
  <rect x="-63.459" y="-63.559" width="126.918" height="127.119" transform="translate(444.436 64.606) rotate(-90)" stroke-linejoin="miter" stroke-linecap="round" stroke="#ffffff" stroke-width="0.75" fill="#666666"/>
  <rect x="-31.637" y="-31.687" width="63.274" height="63.375" transform="translate(349.189 97.382) rotate(-90)" stroke-linejoin="miter" stroke-linecap="round" stroke="#ffffff" stroke-width="0.75" fill="#666666"/>
  <rect x="-31.652" y="-31.686" width="63.304" height="63.373" transform="translate(285.535 97.397) rotate(-90)" stroke-linejoin="miter" stroke-linecap="round" stroke="#ffffff" stroke-width="0.75" fill="#666666"/>
  <rect x="-31.652" y="-31.687" width="63.304" height="63.375" transform="translate(349.189 160.981) rotate(-90)" stroke-linejoin="miter" stroke-linecap="round" stroke="#ffffff" stroke-width="0.75" fill="#666666"/>
  <rect x="-31.652" y="-31.686" width="63.304" height="63.373" transform="translate(285.535 160.981) rotate(-90)" stroke-linejoin="miter" stroke-linecap="round" stroke="#ffffff" stroke-width="0.75" fill="#666666"/>
  <rect x="-31.636" y="-31.708" width="63.273" height="63.417" transform="translate(412.952 288.356) rotate(-90)" stroke-linejoin="miter" stroke-linecap="round" stroke="#ffffff" stroke-width="0.75" fill="#666666"/>
  <rect x="-31.652" y="-31.686" width="63.304" height="63.373" transform="translate(476.722 288.34) rotate(-90)" stroke-linejoin="miter" stroke-linecap="round" stroke="#ffffff" stroke-width="0.75" fill="#666666"/>
  <rect x="-31.674" y="-31.709" width="63.349" height="63.418" transform="translate(412.588 161.005) rotate(90)" stroke-linejoin="miter" stroke-linecap="round" stroke="#ffffff" stroke-width="0.75" fill="#666666"/>
  <rect x="-31.674" y="-31.708" width="63.349" height="63.416" transform="translate(476.253 161.005) rotate(90)" stroke-linejoin="miter" stroke-linecap="round" stroke="#ffffff" stroke-width="0.75" fill="#666666"/>
  <rect x="-31.674" y="-31.709" width="63.349" height="63.418" transform="translate(285.129 32.822) rotate(90)" stroke-linejoin="miter" stroke-linecap="round" stroke="#ffffff" stroke-width="0.75" fill="#666666"/>
  <rect x="-31.674" y="-31.708" width="63.349" height="63.416" transform="translate(348.795 32.822) rotate(90)" stroke-linejoin="miter" stroke-linecap="round" stroke="#ffffff" stroke-width="0.75" fill="#666666"/>
  <rect x="-63.459" y="-63.603" width="126.918" height="127.207" transform="translate(317.453 256.982) rotate(-90)" stroke-linejoin="miter" stroke-linecap="round" stroke="#ffffff" stroke-width="0.75" fill="#666666"/>
  <rect x="-31.637" y="-31.708" width="63.274" height="63.417" transform="translate(412.952 223.659) rotate(-90)" stroke-linejoin="miter" stroke-linecap="round" stroke="#ffffff" stroke-width="0.75" fill="#666666"/>
  <rect x="-31.652" y="-31.686" width="63.304" height="63.373" transform="translate(476.722 223.673) rotate(-90)" stroke-linejoin="miter" stroke-linecap="round" stroke="#ffffff" stroke-width="0.75" fill="#666666"/>
  <rect x="-31.637" y="-31.677" width="63.274" height="63.355" transform="translate(286.597 352.689) rotate(90)" stroke="#ffffff" stroke-width="0.75" stroke-linejoin="miter" stroke-linecap="round" fill="#666666"/>
  <rect x="-31.637" y="-31.676" width="63.274" height="63.353" transform="translate(414.549 352.69) rotate(90)" stroke="#ffffff" stroke-width="0.75" stroke-linejoin="miter" stroke-linecap="round" fill="#666666"/>
  <rect x="-31.637" y="-31.676" width="63.274" height="63.352" transform="translate(350.403 352.689) rotate(90)" stroke="#ffffff" stroke-width="0.75" stroke-linejoin="miter" stroke-linecap="round" fill="#666666"/>
  <rect x="-32.79" y="-31.791" width="65.581" height="63.583" transform="translate(475.52 352.535)" stroke="#ffffff" stroke-width="0.75" stroke-linejoin="miter" stroke-linecap="round" fill="#666666"/>
  <g id="Group_1" stroke-linejoin="miter" stroke-linecap="round" stroke="#ffffff" stroke-width="0.75" fill="#666666">
   <rect x="-63.539" y="-63.559" width="127.079" height="127.118" transform="translate(63.935 65.414) rotate(-90)"/>
   <rect x="-31.676" y="-31.686" width="63.352" height="63.373" transform="translate(159.414 33.584) rotate(-90)"/>
   <rect x="-31.691" y="-31.686" width="63.382" height="63.373" transform="translate(223.067 33.582) rotate(-90)"/>
   <rect x="-31.692" y="-31.686" width="63.385" height="63.373" transform="translate(159.414 97.247) rotate(-90)"/>
   <rect x="-31.692" y="-31.686" width="63.385" height="63.373" transform="translate(223.067 97.247) rotate(-90)"/>
   <rect x="-127.263" y="-127.27" width="254.527" height="254.54" transform="translate(127.645 256.219) rotate(90)"/>
  </g>
 </g>
</svg>
